<svg xmlns="http://www.w3.org/2000/svg" width="32" height="32" viewBox="0 0 32 32"><path d="M0,0H32V32H0Z" fill="none"/><path d="M21.925,18.08a2.887,2.887,0,0,0,2.52-1.552L29.484,6.7c.532-.974.085-2.069-1.008-2.069H7.31L5.8,1.527H1.263v3.1h2.52l5.543,11.38L7.311,19.632a2.827,2.827,0,0,0,.059,2.831A2.707,2.707,0,0,0,9.83,23.77H26.964V21.183H9.83l1.512-3.1ZM8.318,7.734H25.957l-4.032,7.242H11.846ZM9.83,25.324a3.1,3.1,0,1,0,3.041,3.1,3.073,3.073,0,0,0-3.041-3.1Zm14.11,0c-1.581,0-2.52,1.481-2.52,3.1s.939,3.1,2.52,3.1a3.1,3.1,0,0,0,0-6.208Z" transform="translate(-0.26 -0.53)" fill="#0ed6d6" stroke="#000812" stroke-width="1"/></svg>